<svg xmlns="http://www.w3.org/2000/svg" xmlns:xlink="http://www.w3.org/1999/xlink" version="1.1" id="レイヤー_1" x="0px" y="0px" width="300.75px" height="36.5px" viewBox="0 0 300.75 36.5" style="enable-background:new 0 0 300.75 36.5;" xml:space="preserve"> <style type="text/css"> .st0{clip-path:url(#SVGID_2_);fill:url(#SVGID_3_);} </style> <g> <defs> <path id="SVGID_1_" d="M30.43,3.33c0,0.5,0,0.92,0,1.09c0.01,1.42-1.14,2.57-2.56,2.57C22.23,7,9.37,7.01,9.37,7.01 c-1.81,0-3.27,1.48-3.25,3.29c0.01,0.44,0.01,0.88,0.02,1.33c0.03,1.71,1.42,3.08,3.13,3.08l14.37,0.11 c3.76,0.03,6.8,3.07,6.82,6.83l0.05,8.15c0.02,3.41-2.74,6.17-6.15,6.16c-6.89-0.04-17.5-0.09-20.85-0.08 c-1.59,0-2.88-1.28-2.89-2.88l0-1.02c0-1.52,1.23-2.76,2.76-2.76c2.25,0,16.38-0.01,18.29-0.01c3.07,0,2.61-4.16,2.61-4.18 c-0.01-1.83-1.04-3.48-2.91-3.5c0,0-6.88-0.04-12.78-0.07c-4.5-0.02-8.11-3.72-8.05-8.22C0.57,11.09,0.6,8.91,0.6,7.26 c0-3.86,3.14-6.99,7.01-6.98l19.8,0.04C29.08,0.31,30.43,1.66,30.43,3.33 M74.28,2.53l0.01,31.23c0,1.22,0.99,2.2,2.2,2.19 c0.93,0,1.99-0.01,2.88-0.01c0.91,0,1.65-0.74,1.65-1.65c0.02-5.66,0.07-24.35,0.08-31.35c0-1.48-1.19-2.69-2.67-2.7 c-0.6-0.01-1.24-0.01-1.84-0.02C75.32,0.22,74.28,1.25,74.28,2.53 M36,2.71l0.04,30.77c0,1.36,1.11,2.46,2.47,2.45 c0.59,0,1.21-0.01,1.8-0.01c1.36-0.01,2.45-1.11,2.45-2.47l-0.06-9.5c-0.01-1.37,1.1-2.48,2.46-2.47l11.78,0.04 c1.35,0,2.45,1.1,2.45,2.45c0,2.66,0.01,6.87,0.01,9.52c0,1.35,1.09,2.45,2.44,2.45c0.59,0,1.21,0.01,1.8,0.01 c1.36,0.01,2.47-1.09,2.47-2.45c0.01-6.51,0.04-24.14,0.05-30.77c0-1.36-1.1-2.46-2.46-2.46l-1.82,0c-1.36,0-2.46,1.11-2.45,2.47 c0.01,2.71,0.01,6.92,0.01,9.58c0,1.36-1.1,2.46-2.47,2.46L45.2,14.74c-1.35,0-2.44-1.1-2.45-2.45c-0.01-2.67-0.02-6.92-0.03-9.59 c0-1.35-1.1-2.45-2.46-2.45c-0.59,0-1.22,0-1.81,0C37.1,0.25,36,1.35,36,2.71 M129.32,2.67c0,1.1-0.01,23.39-0.01,30.43 c0,1.54,1.25,2.79,2.79,2.79c5.74,0.01,18.79,0.04,24.53,0.06c1.54,0.01,2.79-1.24,2.8-2.78l0.01-1.17 c0.01-1.53-1.23-2.78-2.76-2.78l-19.31-0.01c-0.77,0-1.39-0.63-1.39-1.39L136,22.8c0-0.76,0.62-1.38,1.38-1.38 c4.03,0,15.78-0.02,20.27,0c0.97,0,1.76-0.78,1.76-1.75c0-0.85,0-1.89,0-2.79c0-1.15-0.93-2.08-2.08-2.08 c-4.69-0.01-16.02-0.05-19.96-0.06c-0.77,0-1.38-0.63-1.38-1.39l0.02-5.06c0-0.76,0.62-1.38,1.39-1.38l19.79,0.01 c1.23,0,2.22-0.99,2.22-2.22c0-0.58,0-1.2,0-1.79c0-1.47-1.19-2.67-2.67-2.67c-6.04,0-20.13,0-25.18,0 C130.6,0.24,129.33,1.7,129.32,2.67 M199.12,2.67c0,1.1-0.01,23.39-0.01,30.43c0,1.54,1.25,2.79,2.79,2.79 c5.74,0.01,18.79,0.04,24.53,0.06c1.54,0.01,2.79-1.24,2.8-2.78l0.01-1.17c0.01-1.53-1.23-2.78-2.76-2.78l-19.31-0.01 c-0.77,0-1.39-0.63-1.39-1.39l0.02-5.03c0-0.76,0.62-1.38,1.38-1.38c4.03,0,15.78-0.02,20.27,0c0.97,0,1.76-0.78,1.76-1.75 c0-0.85,0-1.89,0-2.79c0-1.15-0.93-2.08-2.08-2.08c-4.69-0.01-16.02-0.05-19.96-0.06c-0.77,0-1.38-0.63-1.38-1.39l0.02-5.06 c0-0.76,0.62-1.38,1.39-1.38l19.79,0.01c1.23,0,2.22-0.99,2.22-2.22c0-0.58,0-1.2,0-1.79c0-1.47-1.19-2.67-2.67-2.67 c-6.04,0-20.13,0-25.18,0C200.4,0.24,199.12,1.7,199.12,2.67 M234.71,2.67c0,1.1-0.01,23.39-0.01,30.43 c0,1.54,1.25,2.79,2.79,2.79c5.74,0.01,18.79,0.04,24.53,0.06c1.54,0.01,2.79-1.24,2.8-2.78l0.01-1.17 c0.01-1.53-1.23-2.78-2.76-2.78l-19.31-0.01c-0.77,0-1.39-0.63-1.39-1.39l0.02-5.03c0.01-2.32-0.01-8.61,0-9.45l0.02-5.06 c0-0.76,0.62-1.38,1.39-1.38l19.79,0.01c1.23,0,2.22-0.99,2.22-2.22c0-0.58,0-1.2,0-1.79c0-1.47-1.19-2.67-2.67-2.67 c-6.04,0-20.13,0-25.18,0C235.98,0.24,234.71,1.7,234.71,2.67 M163.94,2.52v2.3c0,1.2,0.98,2.18,2.18,2.17l6.96-0.03 c1.09,0,1.97,0.87,1.97,1.96l0,25c0,1.11,0.89,2.01,2,2.01c0.86,0.01,1.85,0.01,2.69,0.02c1.13,0.01,2.04-0.9,2.04-2.03l0.07-25.2 c0-0.97,0.8-1.76,1.77-1.75l8.27,0.05c1.19,0.01,2.17-0.96,2.17-2.15V2.99c0-1.49-1.2-2.7-2.69-2.7c-5.87,0-19.73-0.02-25.19-0.02 C164.94,0.27,163.94,1.28,163.94,2.52 M270.36,2.71l0.04,30.77c0,1.36,1.11,2.46,2.47,2.45c0.59,0,1.21-0.01,1.8-0.01 c1.36-0.01,2.45-1.11,2.45-2.47l-0.06-9.5c-0.01-1.37,1.1-2.48,2.46-2.47l11.78,0.04c1.35,0,2.45,1.1,2.45,2.45 c0,2.66,0.01,6.87,0.01,9.52c0,1.35,1.09,2.45,2.44,2.45c0.59,0,1.21,0.01,1.8,0.01c1.36,0.01,2.47-1.09,2.47-2.45 c0.01-6.51,0.04-24.14,0.05-30.77c0-1.36-1.1-2.46-2.46-2.46l-1.82,0c-1.36,0-2.46,1.11-2.45,2.47c0.01,2.71,0.01,6.92,0.01,9.58 c0,1.36-1.1,2.46-2.47,2.46l-11.79-0.04c-1.35,0-2.45-1.1-2.45-2.45c-0.01-2.67-0.02-6.92-0.03-9.59c0-1.35-1.1-2.45-2.46-2.45 c-0.59,0-1.22,0-1.81,0C271.46,0.25,270.36,1.35,270.36,2.71 M116.55,2.53l0.01,31.23c0,1.22,0.99,2.2,2.2,2.19 c0.93,0,1.99-0.01,2.88-0.01c0.91,0,1.65-0.74,1.65-1.65c0.02-5.66,0.07-24.35,0.08-31.35c0-1.48-1.19-2.69-2.67-2.7 c-0.6-0.01-1.24-0.01-1.84-0.02C117.59,0.22,116.55,1.25,116.55,2.53 M88.83,2.53l0.01,31.23c0,1.22,0.99,2.2,2.2,2.19 c0.93,0,1.99-0.01,2.88-0.01c0.91,0,1.65-0.74,1.65-1.65c0.02-5.66,0.07-24.35,0.08-31.35c0-1.48-1.19-2.69-2.67-2.7 c-0.6-0.01-1.24-0.01-1.84-0.02C89.87,0.22,88.83,1.25,88.83,2.53 M97.7,1.24l0.03,7.8l7.21,6.77l0.07-7.9L97.7,1.24z M107.14,9.2 l0.03,7.8l7.21,6.77l0.07-7.9L107.14,9.2z M97.7,12.25l0.03,7.8l7.21,6.77l0.07-7.9L97.7,12.25z M107.14,20.41l0.03,7.8l7.21,6.77 l0.07-7.9L107.14,20.41z"></path> </defs> <clipPath id="SVGID_2_"> <use xlink:href="#SVGID_1_" style="overflow:visible;"></use> </clipPath> <linearGradient id="SVGID_3_" gradientUnits="userSpaceOnUse" x1="-269.3649" y1="-776.8255" x2="-244.4343" y2="-776.8255" gradientTransform="matrix(-1.836970e-16 1 -1 -1.836970e-16 -626.2842 275.5687)"> <stop offset="0" style="stop-color:#09AFEF"></stop> <stop offset="1" style="stop-color:#1D76B9"></stop> </linearGradient> <polygon class="st0" points="0.45,-19.43 300.63,-19.43 300.63,56.01 0.45,56.01 "></polygon> </g> </svg>